+ filenameToUse=/home/horvathandras/vatic/vatic/public/videouploads/DJI_0047_30m_szarvasragas_foltokban.avi
+ filenameNoDot=DJI_0047_30m_szarvasragas_foltokban_Homokmegy_20180603_napos_napraforgo_T3
+ FullUploadPath=/home/horvathandras/vatic/vatic/public/videouploads/DJI_0047_30m_szarvasragas_foltokban.avi
+ VideoDataDir=/home/horvathandras/vatic/vatic/videos
+ AvailableObjectTypes='PozitívROI NegatívROI Túrás ~Friss ~Régebbi Rágás ~Friss ~Régebbi Törés ~Friss ~Régebbi Taposás ~Friss ~Régebbi EgészségesNövény Egyéb1 Egyéb2 Egyéb3 Egyéb4 Egyéb5'
++ dirname /home/horvathandras/vatic/vatic/vatic_publisher.sh
+ cd /home/horvathandras/vatic/vatic
+ touch /home/horvathandras/vatic/vatic/public/videouploads/DJI_0047_30m_szarvasragas_foltokban.avi
+ chmod 744 /home/horvathandras/vatic/vatic/public/videouploads/DJI_0047_30m_szarvasragas_foltokban.avi
+ mkdir /home/horvathandras/vatic/vatic/videos/DJI_0047_30m_szarvasragas_foltokban_Homokmegy_20180603_napos_napraforgo_T3
mkdir: cannot create directory '/home/horvathandras/vatic/vatic/videos/DJI_0047_30m_szarvasragas_foltokban_Homokmegy_20180603_napos_napraforgo_T3': File exists
+ turkic extract /home/horvathandras/vatic/vatic/public/videouploads/DJI_0047_30m_szarvasragas_foltokban.avi /home/horvathandras/vatic/vatic/videos/DJI_0047_30m_szarvasragas_foltokban_Homokmegy_20180603_napos_napraforgo_T3 --no-resize
ffmpeg version 2.8.14-0ubuntu0.16.04.1 Copyright (c) 2000-2018 the FFmpeg developers
  built with gcc 5.4.0 (Ubuntu 5.4.0-6ubuntu1~16.04.9) 20160609
  configuration: --prefix=/usr --extra-version=0ubuntu0.16.04.1 --build-suffix=-ffmpeg --toolchain=hardened --libdir=/usr/lib/x86_64-linux-gnu --incdir=/usr/include/x86_64-linux-gnu --cc=cc --cxx=g++ --enable-gpl --enable-shared --disable-stripping --disable-decoder=libopenjpeg --disable-decoder=libschroedinger --enable-avresample --enable-avisynth --enable-gnutls --enable-ladspa --enable-libass --enable-libbluray --enable-libbs2b --enable-libcaca --enable-libcdio --enable-libflite --enable-libfontconfig --enable-libfreetype --enable-libfribidi --enable-libgme --enable-libgsm --enable-libmodplug --enable-libmp3lame --enable-libopenjpeg --enable-libopus --enable-libpulse --enable-librtmp --enable-libschroedinger --enable-libshine --enable-libsnappy --enable-libsoxr --enable-libspeex --enable-libssh --enable-libtheora --enable-libtwolame --enable-libvorbis --enable-libvpx --enable-libwavpack --enable-libwebp --enable-libx265 --enable-libxvid --enable-libzvbi --enable-openal --enable-opengl --enable-x11grab --enable-libdc1394 --enable-libiec61883 --enable-libzmq --enable-frei0r --enable-libx264 --enable-libopencv
  libavutil      54. 31.100 / 54. 31.100
  libavcodec     56. 60.100 / 56. 60.100
  libavformat    56. 40.101 / 56. 40.101
  libavdevice    56.  4.100 / 56.  4.100
  libavfilter     5. 40.101 /  5. 40.101
  libavresample   2.  1.  0 /  2.  1.  0
  libswscale      3.  1.101 /  3.  1.101
  libswresample   1.  2.101 /  1.  2.101
  libpostproc    53.  3.100 / 53.  3.100
Input #0, mov,mp4,m4a,3gp,3g2,mj2, from '/home/horvathandras/vatic/vatic/public/videouploads/DJI_0047_30m_szarvasragas_foltokban.avi':
  Metadata:
    major_brand     : qt  
    minor_version   : 537986816
    compatible_brands: qt  
    creation_time   : 2018-06-03 08:35:45
    location        : +46.519101+19.146534+30.300
    location-{    : +46.519101+19.146534+30.300
    comment         : DE=None, Mode=P, DSW=0001
  Duration: 00:00:22.34, start: 0.000000, bitrate: 101023 kb/s
    Stream #0:0(eng): Video: h264 (High) (avc1 / 0x31637661), yuv420p(tv, bt709), 4096x2160 [SAR 1:1 DAR 256:135], 101015 kb/s, 50 fps, 50 tbr, 50k tbn, 100 tbc (default)
    Metadata:
      creation_time   : 2018-06-03 08:35:45
      handler_name    : DJI.AVC
      encoder         : AVC encoder
    Stream #0:1(eng): Data: none (priv / 0x76697270), 4 kb/s
    Metadata:
      creation_time   : 2018-06-03 08:35:45
      handler_name    : DJI.Meta
Please use -b:a or -b:v, -b is ambiguous
[swscaler @ 0x11e4480] deprecated pixel format used, make sure you did set range correctly
Output #0, image2, to '/tmp/pyvision-ffmpeg-113897998/%d.jpg':
  Metadata:
    major_brand     : qt  
    minor_version   : 537986816
    compatible_brands: qt  
    comment         : DE=None, Mode=P, DSW=0001
    location        : +46.519101+19.146534+30.300
    location-{    : +46.519101+19.146534+30.300
    encoder         : Lavf56.40.101
    Stream #0:0(eng): Video: mjpeg, yuvj420p(pc), 4096x2160 [SAR 1:1 DAR 256:135], q=2-31, 10000 kb/s, 50 fps, 50 tbn, 50 tbc (default)
    Metadata:
      creation_time   : 2018-06-03 08:35:45
      handler_name    : DJI.AVC
      encoder         : Lavc56.60.100 mjpeg
Stream mapping:
  Stream #0:0 -> #0:0 (h264 (native) -> mjpeg (native))
Press [q] to stop, [?] for help
frame=    1 fps=0.0 q=20.1 size=N/A time=00:00:00.02 bitrate=N/A    frame=    5 fps=4.4 q=24.8 size=N/A time=00:00:00.10 bitrate=N/A    frame=   10 fps=5.7 q=24.8 size=N/A time=00:00:00.20 bitrate=N/A    frame=   15 fps=6.4 q=24.8 size=N/A time=00:00:00.30 bitrate=N/A    frame=   20 fps=6.8 q=24.8 size=N/A time=00:00:00.40 bitrate=N/A    frame=   25 fps=7.0 q=24.8 size=N/A time=00:00:00.50 bitrate=N/A    frame=   30 fps=7.2 q=24.8 size=N/A time=00:00:00.60 bitrate=N/A    frame=   35 fps=7.3 q=24.8 size=N/A time=00:00:00.70 bitrate=N/A    frame=   40 fps=7.4 q=24.8 size=N/A time=00:00:00.80 bitrate=N/A    frame=   45 fps=7.5 q=24.8 size=N/A time=00:00:00.90 bitrate=N/A    frame=   50 fps=7.6 q=24.8 size=N/A time=00:00:01.00 bitrate=N/A    frame=   55 fps=7.6 q=24.8 size=N/A time=00:00:01.10 bitrate=N/A    frame=   60 fps=7.7 q=24.8 size=N/A time=00:00:01.20 bitrate=N/A    frame=   65 fps=7.8 q=24.8 size=N/A time=00:00:01.30 bitrate=N/A    frame=   70 fps=7.8 q=24.8 size=N/A time=00:00:01.40 bitrate=N/A    frame=   75 fps=7.8 q=24.8 size=N/A time=00:00:01.50 bitrate=N/A    frame=   80 fps=7.9 q=24.8 size=N/A time=00:00:01.60 bitrate=N/A    frame=   85 fps=7.9 q=24.8 size=N/A time=00:00:01.70 bitrate=N/A    frame=   90 fps=7.9 q=24.8 size=N/A time=00:00:01.80 bitrate=N/A    frame=   95 fps=7.9 q=24.8 size=N/A time=00:00:01.90 bitrate=N/A    frame=  100 fps=7.9 q=24.8 size=N/A time=00:00:02.00 bitrate=N/A    frame=  105 fps=8.0 q=24.8 size=N/A time=00:00:02.10 bitrate=N/A    frame=  110 fps=8.0 q=24.8 size=N/A time=00:00:02.20 bitrate=N/A    frame=  115 fps=8.0 q=24.8 size=N/A time=00:00:02.30 bitrate=N/A    frame=  120 fps=8.0 q=24.8 size=N/A time=00:00:02.40 bitrate=N/A    frame=  125 fps=8.0 q=24.8 size=N/A time=00:00:02.50 bitrate=N/A    frame=  130 fps=8.0 q=24.8 size=N/A time=00:00:02.60 bitrate=N/A    frame=  135 fps=8.0 q=24.8 size=N/A time=00:00:02.70 bitrate=N/A    frame=  140 fps=8.1 q=24.8 size=N/A time=00:00:02.80 bitrate=N/A    frame=  145 fps=8.1 q=24.8 size=N/A time=00:00:02.90 bitrate=N/A    frame=  150 fps=8.1 q=24.8 size=N/A time=00:00:03.00 bitrate=N/A    frame=  155 fps=8.1 q=24.8 size=N/A time=00:00:03.10 bitrate=N/A    frame=  160 fps=8.1 q=24.8 size=N/A time=00:00:03.20 bitrate=N/A    frame=  165 fps=8.1 q=24.8 size=N/A time=00:00:03.30 bitrate=N/A    frame=  170 fps=8.1 q=24.8 size=N/A time=00:00:03.40 bitrate=N/A    frame=  175 fps=8.1 q=24.8 size=N/A time=00:00:03.50 bitrate=N/A    frame=  180 fps=8.1 q=24.8 size=N/A time=00:00:03.60 bitrate=N/A    frame=  185 fps=8.1 q=24.8 size=N/A time=00:00:03.70 bitrate=N/A    frame=  190 fps=8.1 q=24.8 size=N/A time=00:00:03.80 bitrate=N/A    frame=  195 fps=8.1 q=24.8 size=N/A time=00:00:03.90 bitrate=N/A    frame=  200 fps=8.1 q=24.8 size=N/A time=00:00:04.00 bitrate=N/A    frame=  205 fps=8.1 q=24.8 size=N/A time=00:00:04.10 bitrate=N/A    frame=  210 fps=8.1 q=24.8 size=N/A time=00:00:04.20 bitrate=N/A    frame=  215 fps=8.2 q=24.8 size=N/A time=00:00:04.30 bitrate=N/A    frame=  220 fps=8.2 q=24.8 size=N/A time=00:00:04.40 bitrate=N/A    frame=  225 fps=8.2 q=24.8 size=N/A time=00:00:04.50 bitrate=N/A    frame=  230 fps=8.2 q=24.8 size=N/A time=00:00:04.60 bitrate=N/A    frame=  235 fps=8.2 q=24.8 size=N/A time=00:00:04.70 bitrate=N/A    frame=  240 fps=8.2 q=24.8 size=N/A time=00:00:04.80 bitrate=N/A    frame=  245 fps=8.2 q=24.8 size=N/A time=00:00:04.90 bitrate=N/A    frame=  250 fps=8.2 q=24.8 size=N/A time=00:00:05.00 bitrate=N/A    frame=  255 fps=8.2 q=24.8 size=N/A time=00:00:05.10 bitrate=N/A    frame=  260 fps=8.2 q=24.8 size=N/A time=00:00:05.20 bitrate=N/A    frame=  265 fps=8.2 q=24.8 size=N/A time=00:00:05.30 bitrate=N/A    frame=  270 fps=8.2 q=24.8 size=N/A time=00:00:05.40 bitrate=N/A    frame=  275 fps=8.2 q=24.8 size=N/A time=00:00:05.50 bitrate=N/A    frame=  280 fps=8.2 q=24.8 size=N/A time=00:00:05.60 bitrate=N/A    frame=  285 fps=8.2 q=24.8 size=N/A time=00:00:05.70 bitrate=N/A    frame=  290 fps=8.2 q=24.8 size=N/A time=00:00:05.80 bitrate=N/A    frame=  295 fps=8.2 q=24.8 size=N/A time=00:00:05.90 bitrate=N/A    frame=  300 fps=8.2 q=24.8 size=N/A time=00:00:06.00 bitrate=N/A    frame=  305 fps=8.2 q=24.8 size=N/A time=00:00:06.10 bitrate=N/A    frame=  310 fps=8.2 q=24.8 size=N/A time=00:00:06.20 bitrate=N/A    frame=  315 fps=8.2 q=24.8 size=N/A time=00:00:06.30 bitrate=N/A    frame=  320 fps=8.2 q=24.8 size=N/A time=00:00:06.40 bitrate=N/A    frame=  325 fps=8.2 q=24.8 size=N/A time=00:00:06.50 bitrate=N/A    frame=  330 fps=8.2 q=24.8 size=N/A time=00:00:06.60 bitrate=N/A    frame=  335 fps=8.2 q=24.8 size=N/A time=00:00:06.70 bitrate=N/A    frame=  340 fps=8.2 q=24.8 size=N/A time=00:00:06.80 bitrate=N/A    frame=  345 fps=8.2 q=24.8 size=N/A time=00:00:06.90 bitrate=N/A    frame=  350 fps=8.2 q=24.8 size=N/A time=00:00:07.00 bitrate=N/A    frame=  355 fps=8.2 q=24.8 size=N/A time=00:00:07.10 bitrate=N/A    frame=  360 fps=8.2 q=24.8 size=N/A time=00:00:07.20 bitrate=N/A    frame=  365 fps=8.2 q=24.8 size=N/A time=00:00:07.30 bitrate=N/A    frame=  370 fps=8.2 q=24.8 size=N/A time=00:00:07.40 bitrate=N/A    frame=  375 fps=8.2 q=24.8 size=N/A time=00:00:07.50 bitrate=N/A    frame=  380 fps=8.2 q=24.8 size=N/A time=00:00:07.60 bitrate=N/A    frame=  385 fps=8.2 q=24.8 size=N/A time=00:00:07.70 bitrate=N/A    frame=  390 fps=8.2 q=24.8 size=N/A time=00:00:07.80 bitrate=N/A    frame=  395 fps=8.2 q=24.8 size=N/A time=00:00:07.90 bitrate=N/A    frame=  400 fps=8.2 q=24.8 size=N/A time=00:00:08.00 bitrate=N/A    frame=  405 fps=8.2 q=24.8 size=N/A time=00:00:08.10 bitrate=N/A    frame=  410 fps=8.2 q=24.8 size=N/A time=00:00:08.20 bitrate=N/A    frame=  415 fps=8.2 q=24.8 size=N/A time=00:00:08.30 bitrate=N/A    frame=  420 fps=8.2 q=24.8 size=N/A time=00:00:08.40 bitrate=N/A    frame=  425 fps=8.2 q=24.8 size=N/A time=00:00:08.50 bitrate=N/A    frame=  430 fps=8.2 q=24.8 size=N/A time=00:00:08.60 bitrate=N/A    frame=  435 fps=8.2 q=24.8 size=N/A time=00:00:08.70 bitrate=N/A    frame=  440 fps=8.2 q=24.8 size=N/A time=00:00:08.80 bitrate=N/A    frame=  445 fps=8.2 q=24.8 size=N/A time=00:00:08.90 bitrate=N/A    frame=  450 fps=8.2 q=24.8 size=N/A time=00:00:09.00 bitrate=N/A    frame=  455 fps=8.2 q=24.8 size=N/A time=00:00:09.10 bitrate=N/A    frame=  460 fps=8.2 q=24.8 size=N/A time=00:00:09.20 bitrate=N/A    frame=  465 fps=8.2 q=24.8 size=N/A time=00:00:09.30 bitrate=N/A    frame=  470 fps=8.2 q=24.8 size=N/A time=00:00:09.40 bitrate=N/A    frame=  475 fps=8.2 q=24.8 size=N/A time=00:00:09.50 bitrate=N/A    frame=  480 fps=8.2 q=24.8 size=N/A time=00:00:09.60 bitrate=N/A    frame=  485 fps=8.2 q=24.8 size=N/A time=00:00:09.70 bitrate=N/A    frame=  490 fps=8.3 q=24.8 size=N/A time=00:00:09.80 bitrate=N/A    frame=  495 fps=8.3 q=24.8 size=N/A time=00:00:09.90 bitrate=N/A    frame=  500 fps=8.3 q=24.8 size=N/A time=00:00:10.00 bitrate=N/A    frame=  505 fps=8.3 q=24.8 size=N/A time=00:00:10.10 bitrate=N/A    frame=  510 fps=8.3 q=24.8 size=N/A time=00:00:10.20 bitrate=N/A    frame=  515 fps=8.3 q=24.8 size=N/A time=00:00:10.30 bitrate=N/A    frame=  520 fps=8.3 q=24.8 size=N/A time=00:00:10.40 bitrate=N/A    frame=  525 fps=8.3 q=24.8 size=N/A time=00:00:10.50 bitrate=N/A    frame=  530 fps=8.3 q=24.8 size=N/A time=00:00:10.60 bitrate=N/A    frame=  535 fps=8.3 q=24.8 size=N/A time=00:00:10.70 bitrate=N/A    frame=  540 fps=8.3 q=24.8 size=N/A time=00:00:10.80 bitrate=N/A    frame=  545 fps=8.3 q=24.8 size=N/A time=00:00:10.90 bitrate=N/A    frame=  550 fps=8.3 q=24.8 size=N/A time=00:00:11.00 bitrate=N/A    frame=  555 fps=8.3 q=24.8 size=N/A time=00:00:11.10 bitrate=N/A    frame=  560 fps=8.3 q=24.8 size=N/A time=00:00:11.20 bitrate=N/A    frame=  565 fps=8.3 q=24.8 size=N/A time=00:00:11.30 bitrate=N/A    frame=  570 fps=8.3 q=24.8 size=N/A time=00:00:11.40 bitrate=N/A    frame=  575 fps=8.3 q=24.8 size=N/A time=00:00:11.50 bitrate=N/A    frame=  580 fps=8.3 q=24.8 size=N/A time=00:00:11.60 bitrate=N/A    frame=  585 fps=8.3 q=24.8 size=N/A time=00:00:11.70 bitrate=N/A    frame=  590 fps=8.3 q=24.8 size=N/A time=00:00:11.80 bitrate=N/A    frame=  595 fps=8.3 q=24.8 size=N/A time=00:00:11.90 bitrate=N/A    frame=  600 fps=8.3 q=24.8 size=N/A time=00:00:12.00 bitrate=N/A    frame=  605 fps=8.3 q=24.8 size=N/A time=00:00:12.10 bitrate=N/A    frame=  610 fps=8.3 q=24.8 size=N/A time=00:00:12.20 bitrate=N/A    frame=  615 fps=8.3 q=24.8 size=N/A time=00:00:12.30 bitrate=N/A    frame=  620 fps=8.3 q=24.8 size=N/A time=00:00:12.40 bitrate=N/A    frame=  625 fps=8.3 q=24.8 size=N/A time=00:00:12.50 bitrate=N/A    frame=  630 fps=8.3 q=24.8 size=N/A time=00:00:12.60 bitrate=N/A    frame=  635 fps=8.3 q=24.8 size=N/A time=00:00:12.70 bitrate=N/A    frame=  640 fps=8.3 q=24.8 size=N/A time=00:00:12.80 bitrate=N/A    frame=  645 fps=8.3 q=24.8 size=N/A time=00:00:12.90 bitrate=N/A    frame=  650 fps=8.3 q=24.8 size=N/A time=00:00:13.00 bitrate=N/A    frame=  655 fps=8.3 q=24.8 size=N/A time=00:00:13.10 bitrate=N/A    frame=  660 fps=8.3 q=24.8 size=N/A time=00:00:13.20 bitrate=N/A    frame=  665 fps=8.3 q=24.8 size=N/A time=00:00:13.30 bitrate=N/A    frame=  670 fps=8.3 q=24.8 size=N/A time=00:00:13.40 bitrate=N/A    frame=  675 fps=8.3 q=24.8 size=N/A time=00:00:13.50 bitrate=N/A    frame=  680 fps=8.3 q=24.8 size=N/A time=00:00:13.60 bitrate=N/A    frame=  685 fps=8.3 q=24.8 size=N/A time=00:00:13.70 bitrate=N/A    frame=  690 fps=8.3 q=24.8 size=N/A time=00:00:13.80 bitrate=N/A    frame=  695 fps=8.3 q=24.8 size=N/A time=00:00:13.90 bitrate=N/A    frame=  700 fps=8.3 q=24.8 size=N/A time=00:00:14.00 bitrate=N/A    frame=  705 fps=8.3 q=24.8 size=N/A time=00:00:14.10 bitrate=N/A    frame=  710 fps=8.3 q=24.8 size=N/A time=00:00:14.20 bitrate=N/A    frame=  715 fps=8.3 q=24.8 size=N/A time=00:00:14.30 bitrate=N/A    frame=  720 fps=8.3 q=24.8 size=N/A time=00:00:14.40 bitrate=N/A    frame=  725 fps=8.3 q=24.8 size=N/A time=00:00:14.50 bitrate=N/A    frame=  730 fps=8.3 q=24.8 size=N/A time=00:00:14.60 bitrate=N/A    frame=  735 fps=8.3 q=24.8 size=N/A time=00:00:14.70 bitrate=N/A    frame=  740 fps=8.3 q=24.8 size=N/A time=00:00:14.80 bitrate=N/A    frame=  745 fps=8.3 q=24.8 size=N/A time=00:00:14.90 bitrate=N/A    frame=  750 fps=8.3 q=24.8 size=N/A time=00:00:15.00 bitrate=N/A    frame=  755 fps=8.3 q=24.8 size=N/A time=00:00:15.10 bitrate=N/A    frame=  760 fps=8.3 q=24.8 size=N/A time=00:00:15.20 bitrate=N/A    frame=  765 fps=8.3 q=24.8 size=N/A time=00:00:15.30 bitrate=N/A    frame=  770 fps=8.3 q=24.8 size=N/A time=00:00:15.40 bitrate=N/A    frame=  775 fps=8.3 q=24.8 size=N/A time=00:00:15.50 bitrate=N/A    frame=  780 fps=8.3 q=24.8 size=N/A time=00:00:15.60 bitrate=N/A    frame=  785 fps=8.3 q=24.8 size=N/A time=00:00:15.70 bitrate=N/A    frame=  790 fps=8.3 q=24.8 size=N/A time=00:00:15.80 bitrate=N/A    frame=  795 fps=8.3 q=24.8 size=N/A time=00:00:15.90 bitrate=N/A    frame=  800 fps=8.3 q=24.8 size=N/A time=00:00:16.00 bitrate=N/A    frame=  805 fps=8.3 q=24.8 size=N/A time=00:00:16.10 bitrate=N/A    frame=  810 fps=8.3 q=24.8 size=N/A time=00:00:16.20 bitrate=N/A    frame=  815 fps=8.3 q=24.8 size=N/A time=00:00:16.30 bitrate=N/A    frame=  820 fps=8.3 q=24.8 size=N/A time=00:00:16.40 bitrate=N/A    frame=  825 fps=8.3 q=24.8 size=N/A time=00:00:16.50 bitrate=N/A    frame=  830 fps=8.3 q=24.8 size=N/A time=00:00:16.60 bitrate=N/A    frame=  835 fps=8.3 q=24.8 size=N/A time=00:00:16.70 bitrate=N/A    frame=  840 fps=8.3 q=24.8 size=N/A time=00:00:16.80 bitrate=N/A    frame=  845 fps=8.3 q=24.8 size=N/A time=00:00:16.90 bitrate=N/A    frame=  850 fps=8.3 q=24.8 size=N/A time=00:00:17.00 bitrate=N/A    frame=  855 fps=8.3 q=24.8 size=N/A time=00:00:17.10 bitrate=N/A    frame=  860 fps=8.3 q=24.8 size=N/A time=00:00:17.20 bitrate=N/A    frame=  865 fps=8.3 q=24.8 size=N/A time=00:00:17.30 bitrate=N/A    frame=  870 fps=8.3 q=24.8 size=N/A time=00:00:17.40 bitrate=N/A    frame=  875 fps=8.3 q=24.8 size=N/A time=00:00:17.50 bitrate=N/A    frame=  880 fps=8.3 q=24.8 size=N/A time=00:00:17.60 bitrate=N/A    frame=  885 fps=8.3 q=24.8 size=N/A time=00:00:17.70 bitrate=N/A    frame=  890 fps=8.3 q=24.8 size=N/A time=00:00:17.80 bitrate=N/A    frame=  895 fps=8.3 q=24.8 size=N/A time=00:00:17.90 bitrate=N/A    frame=  900 fps=8.3 q=24.8 size=N/A time=00:00:18.00 bitrate=N/A    frame=  905 fps=8.3 q=24.8 size=N/A time=00:00:18.10 bitrate=N/A    frame=  910 fps=8.3 q=24.8 size=N/A time=00:00:18.20 bitrate=N/A    frame=  915 fps=8.3 q=24.8 size=N/A time=00:00:18.30 bitrate=N/A    frame=  920 fps=8.3 q=24.8 size=N/A time=00:00:18.40 bitrate=N/A    frame=  925 fps=8.3 q=24.8 size=N/A time=00:00:18.50 bitrate=N/A    frame=  930 fps=8.3 q=24.8 size=N/A time=00:00:18.60 bitrate=N/A    frame=  935 fps=8.3 q=24.8 size=N/A time=00:00:18.70 bitrate=N/A    frame=  940 fps=8.3 q=24.8 size=N/A time=00:00:18.80 bitrate=N/A    frame=  945 fps=8.3 q=24.8 size=N/A time=00:00:18.90 bitrate=N/A    frame=  950 fps=8.3 q=24.8 size=N/A time=00:00:19.00 bitrate=N/A    frame=  955 fps=8.3 q=24.8 size=N/A time=00:00:19.10 bitrate=N/A    frame=  960 fps=8.3 q=24.8 size=N/A time=00:00:19.20 bitrate=N/A    frame=  965 fps=8.3 q=24.8 size=N/A time=00:00:19.30 bitrate=N/A    frame=  970 fps=8.3 q=24.8 size=N/A time=00:00:19.40 bitrate=N/A    frame=  975 fps=8.3 q=24.8 size=N/A time=00:00:19.50 bitrate=N/A    frame=  980 fps=8.3 q=24.8 size=N/A time=00:00:19.60 bitrate=N/A    frame=  985 fps=8.3 q=24.8 size=N/A time=00:00:19.70 bitrate=N/A    frame=  990 fps=8.3 q=24.8 size=N/A time=00:00:19.80 bitrate=N/A    frame=  995 fps=8.3 q=24.8 size=N/A time=00:00:19.90 bitrate=N/A    frame= 1000 fps=8.3 q=24.8 size=N/A time=00:00:20.00 bitrate=N/A    frame= 1005 fps=8.3 q=24.8 size=N/A time=00:00:20.10 bitrate=N/A    frame= 1010 fps=8.3 q=24.8 size=N/A time=00:00:20.20 bitrate=N/A    frame= 1015 fps=8.3 q=24.8 size=N/A time=00:00:20.30 bitrate=N/A    frame= 1020 fps=8.3 q=24.8 size=N/A time=00:00:20.40 bitrate=N/A    frame= 1025 fps=8.3 q=24.8 size=N/A time=00:00:20.50 bitrate=N/A    frame= 1030 fps=8.3 q=24.8 size=N/A time=00:00:20.60 bitrate=N/A    frame= 1035 fps=8.3 q=24.8 size=N/A time=00:00:20.70 bitrate=N/A    frame= 1040 fps=8.3 q=24.8 size=N/A time=00:00:20.80 bitrate=N/A    frame= 1045 fps=8.3 q=24.8 size=N/A time=00:00:20.90 bitrate=N/A    frame= 1050 fps=8.3 q=24.8 size=N/A time=00:00:21.00 bitrate=N/A    frame= 1055 fps=8.3 q=24.8 size=N/A time=00:00:21.10 bitrate=N/A    frame= 1060 fps=8.3 q=24.8 size=N/A time=00:00:21.20 bitrate=N/A    frame= 1065 fps=8.3 q=24.8 size=N/A time=00:00:21.30 bitrate=N/A    frame= 1070 fps=8.3 q=24.8 size=N/A time=00:00:21.40 bitrate=N/A    frame= 1075 fps=8.3 q=24.8 size=N/A time=00:00:21.50 bitrate=N/A    frame= 1080 fps=8.3 q=24.8 size=N/A time=00:00:21.60 bitrate=N/A    frame= 1085 fps=8.3 q=24.8 size=N/A time=00:00:21.70 bitrate=N/A    frame= 1090 fps=8.3 q=24.8 size=N/A time=00:00:21.80 bitrate=N/A    frame= 1095 fps=8.3 q=24.8 size=N/A time=00:00:21.90 bitrate=N/A    frame= 1100 fps=8.3 q=24.8 size=N/A time=00:00:22.00 bitrate=N/A    frame= 1105 fps=8.3 q=24.8 size=N/A time=00:00:22.10 bitrate=N/A    frame= 1110 fps=8.3 q=24.8 size=N/A time=00:00:22.20 bitrate=N/A    frame= 1115 fps=8.3 q=24.8 size=N/A time=00:00:22.30 bitrate=N/A    frame= 1117 fps=8.3 q=24.8 Lsize=N/A time=00:00:22.34 bitrate=N/A    
video:1027832kB audio:0kB subtitle:0kB other streams:0kB global headers:0kB muxing overhead: unknown
+ turkic load DJI_0047_30m_szarvasragas_foltokban_Homokmegy_20180603_napos_napraforgo_T3 /home/horvathandras/vatic/vatic/videos/DJI_0047_30m_szarvasragas_foltokban_Homokmegy_20180603_napos_napraforgo_T3 $'Pozit\303\255vROI' $'Negat\303\255vROI' $'T\303\272r\303\241s' '~Friss' '~Régebbi' $'R\303\241g\303\241s' '~Friss' '~Régebbi' $'T\303\266r\303\251s' '~Friss' '~Régebbi' $'Tapos\303\241s' '~Friss' '~Régebbi' $'Eg\303\251szs\303\251gesN\303\266v\303\251ny' $'Egy\303\251b1' $'Egy\303\251b2' $'Egy\303\251b3' $'Egy\303\251b4' $'Egy\303\251b5' --offline --title '$filenameNoDot Video' --length 1000 --description 'vatic annotation'
+ turkic publish --offline
+ mkdir /home/horvathandras/vatic/vatic/public/videothumbnails/DJI_0047_30m_szarvasragas_foltokban_Homokmegy_20180603_napos_napraforgo_T3
mkdir: cannot create directory '/home/horvathandras/vatic/vatic/public/videothumbnails/DJI_0047_30m_szarvasragas_foltokban_Homokmegy_20180603_napos_napraforgo_T3': File exists
+ cp /home/horvathandras/vatic/vatic/videos/DJI_0047_30m_szarvasragas_foltokban_Homokmegy_20180603_napos_napraforgo_T3/0/0/31.jpg /home/horvathandras/vatic/vatic/public/videothumbnails/DJI_0047_30m_szarvasragas_foltokban_Homokmegy_20180603_napos_napraforgo_T3/thumb.jpg
